<mxfile host="app.diagrams.net" agent="Mozilla/5.0 (Macintosh; Intel Mac OS X 10.15; rv:144.0) Gecko/20100101 Firefox/144.0" version="28.2.8">
  <diagram name="Page-1" id="b5b7bab2-c9e2-2cf4-8b2a-24fd1a2a6d21">
    <mxGraphModel dx="1414" dy="972" grid="1" gridSize="10" guides="1" tooltips="1" connect="1" arrows="1" fold="1" page="1" pageScale="1" pageWidth="827" pageHeight="1169" background="none" math="0" shadow="0">
      <root>
        <mxCell id="0" />
        <mxCell id="1" parent="0" />
        <mxCell id="lSBOil5emQWYhYtDji0R-12" value="" style="whiteSpace=wrap;strokeWidth=2;" vertex="1" parent="1">
          <mxGeometry x="230" y="330" width="435" height="384" as="geometry" />
        </mxCell>
        <mxCell id="lSBOil5emQWYhYtDji0R-35" style="edgeStyle=orthogonalEdgeStyle;rounded=0;orthogonalLoop=1;jettySize=auto;html=1;exitX=0.5;exitY=0.5;exitDx=0;exitDy=0;exitPerimeter=0;entryX=0;entryY=0.5;entryDx=0;entryDy=0;" edge="1" parent="1" source="lSBOil5emQWYhYtDji0R-29" target="lSBOil5emQWYhYtDji0R-34">
          <mxGeometry relative="1" as="geometry" />
        </mxCell>
        <mxCell id="lSBOil5emQWYhYtDji0R-29" value="User/Peneliti" style="shape=umlActor;verticalLabelPosition=bottom;verticalAlign=top;html=1;" vertex="1" parent="1">
          <mxGeometry x="170" y="485" width="30" height="60" as="geometry" />
        </mxCell>
        <mxCell id="lSBOil5emQWYhYtDji0R-37" value="" style="edgeStyle=orthogonalEdgeStyle;rounded=0;orthogonalLoop=1;jettySize=auto;html=1;" edge="1" parent="1" source="lSBOil5emQWYhYtDji0R-34" target="lSBOil5emQWYhYtDji0R-36">
          <mxGeometry relative="1" as="geometry" />
        </mxCell>
        <mxCell id="lSBOil5emQWYhYtDji0R-34" value="Klien Nextcloud" style="ellipse;whiteSpace=wrap;html=1;" vertex="1" parent="1">
          <mxGeometry x="260" y="480" width="140" height="70" as="geometry" />
        </mxCell>
        <mxCell id="lSBOil5emQWYhYtDji0R-36" value="Klien Tailscale" style="ellipse;whiteSpace=wrap;html=1;" vertex="1" parent="1">
          <mxGeometry x="480" y="480" width="140" height="70" as="geometry" />
        </mxCell>
      </root>
    </mxGraphModel>
  </diagram>
</mxfile>
